<mxfile host="app.diagrams.net" modified="2023-05-01T15:34:12.023Z" agent="Mozilla/5.0 (Windows NT 10.0; Win64; x64) AppleWebKit/537.36 (KHTML, like Gecko) Chrome/112.0.0.0 Safari/537.36" etag="NExY26Bf_6ZSBK0jkAYH" version="21.2.3" type="device">
  <diagram name="PÃ¡gina-1" id="L0leI2E9P_WmcyJNo13L">
    <mxGraphModel dx="874" dy="476" grid="1" gridSize="10" guides="1" tooltips="1" connect="1" arrows="1" fold="1" page="1" pageScale="1" pageWidth="827" pageHeight="1169" background="#ffffff" math="0" shadow="0">
      <root>
        <mxCell id="0" />
        <mxCell id="1" parent="0" />
        <mxCell id="Vsxb12wJyIrttciseyi8-1" value="&lt;div style=&quot;&quot;&gt;Requirements:&lt;/div&gt;&lt;div style=&quot;&quot;&gt;&lt;ul&gt;&lt;li&gt;Car ordering service process (8-12 activities)&lt;/li&gt;&lt;/ul&gt;&lt;div&gt;Example Activities:&lt;/div&gt;&lt;div&gt;&lt;ul&gt;&lt;li&gt;Setting a destination&lt;/li&gt;&lt;li&gt;Taking a car&lt;/li&gt;&lt;li&gt;Sharing trip details&lt;/li&gt;&lt;/ul&gt;&lt;div&gt;Example branching logic:&lt;/div&gt;&lt;/div&gt;&lt;div&gt;&lt;ul&gt;&lt;li&gt;Is the trip possible?&lt;/li&gt;&lt;li&gt;Share payment with others?&lt;/li&gt;&lt;/ul&gt;&lt;/div&gt;&lt;/div&gt;" style="text;html=1;strokeColor=none;fillColor=none;align=left;verticalAlign=middle;whiteSpace=wrap;rounded=0;fontFamily=Coming Soon;fontSource=https%3A%2F%2Ffonts.googleapis.com%2Fcss%3Ffamily%3DComing%2BSoon;fontStyle=1" vertex="1" parent="1">
          <mxGeometry x="40" y="40" width="200" height="240" as="geometry" />
        </mxCell>
        <mxCell id="Vsxb12wJyIrttciseyi8-2" value="&lt;h2&gt;Uber - Activity Diagram&lt;/h2&gt;" style="text;html=1;strokeColor=none;fillColor=none;align=center;verticalAlign=middle;whiteSpace=wrap;rounded=0;fontFamily=Coming Soon;fontSource=https%3A%2F%2Ffonts.googleapis.com%2Fcss%3Ffamily%3DComing%2BSoon;fontStyle=5" vertex="1" parent="1">
          <mxGeometry x="320" y="40" width="280" height="40" as="geometry" />
        </mxCell>
        <mxCell id="Vsxb12wJyIrttciseyi8-7" value="" style="edgeStyle=orthogonalEdgeStyle;rounded=0;orthogonalLoop=1;jettySize=auto;html=1;" edge="1" parent="1" source="Vsxb12wJyIrttciseyi8-4">
          <mxGeometry relative="1" as="geometry">
            <mxPoint x="120" y="420" as="targetPoint" />
          </mxGeometry>
        </mxCell>
        <mxCell id="Vsxb12wJyIrttciseyi8-4" value="" style="ellipse;whiteSpace=wrap;html=1;aspect=fixed;strokeWidth=1;fillColor=#000000;" vertex="1" parent="1">
          <mxGeometry x="40" y="400" width="40" height="40" as="geometry" />
        </mxCell>
        <mxCell id="Vsxb12wJyIrttciseyi8-11" value="Rider opens the appliication" style="text;html=1;strokeColor=none;fillColor=none;align=center;verticalAlign=middle;whiteSpace=wrap;rounded=0;" vertex="1" parent="1">
          <mxGeometry x="40" y="440" width="100" height="40" as="geometry" />
        </mxCell>
        <mxCell id="Vsxb12wJyIrttciseyi8-49" value="" style="edgeStyle=orthogonalEdgeStyle;rounded=0;orthogonalLoop=1;jettySize=auto;html=1;" edge="1" parent="1" source="Vsxb12wJyIrttciseyi8-45" target="Vsxb12wJyIrttciseyi8-47">
          <mxGeometry relative="1" as="geometry" />
        </mxCell>
        <mxCell id="Vsxb12wJyIrttciseyi8-45" value="" style="rhombus;whiteSpace=wrap;html=1;" vertex="1" parent="1">
          <mxGeometry x="120" y="400" width="40" height="40" as="geometry" />
        </mxCell>
        <mxCell id="Vsxb12wJyIrttciseyi8-50" value="" style="edgeStyle=orthogonalEdgeStyle;rounded=0;orthogonalLoop=1;jettySize=auto;html=1;" edge="1" parent="1" source="Vsxb12wJyIrttciseyi8-47" target="Vsxb12wJyIrttciseyi8-48">
          <mxGeometry relative="1" as="geometry" />
        </mxCell>
        <mxCell id="Vsxb12wJyIrttciseyi8-47" value="Set departure" style="rounded=1;whiteSpace=wrap;html=1;" vertex="1" parent="1">
          <mxGeometry x="200" y="390" width="120" height="60" as="geometry" />
        </mxCell>
        <mxCell id="Vsxb12wJyIrttciseyi8-60" style="edgeStyle=orthogonalEdgeStyle;rounded=0;orthogonalLoop=1;jettySize=auto;html=1;entryX=0;entryY=0.5;entryDx=0;entryDy=0;" edge="1" parent="1" source="Vsxb12wJyIrttciseyi8-48" target="Vsxb12wJyIrttciseyi8-51">
          <mxGeometry relative="1" as="geometry" />
        </mxCell>
        <mxCell id="Vsxb12wJyIrttciseyi8-48" value="Set destination" style="rounded=1;whiteSpace=wrap;html=1;" vertex="1" parent="1">
          <mxGeometry x="360" y="390" width="120" height="60" as="geometry" />
        </mxCell>
        <mxCell id="Vsxb12wJyIrttciseyi8-54" value="Yes" style="edgeStyle=orthogonalEdgeStyle;rounded=0;orthogonalLoop=1;jettySize=auto;html=1;entryX=0.5;entryY=0;entryDx=0;entryDy=0;" edge="1" parent="1" source="Vsxb12wJyIrttciseyi8-51" target="Vsxb12wJyIrttciseyi8-53">
          <mxGeometry relative="1" as="geometry" />
        </mxCell>
        <mxCell id="Vsxb12wJyIrttciseyi8-84" value="No" style="edgeStyle=orthogonalEdgeStyle;rounded=0;orthogonalLoop=1;jettySize=auto;html=1;entryX=1;entryY=0.5;entryDx=0;entryDy=0;" edge="1" parent="1" source="Vsxb12wJyIrttciseyi8-51" target="Vsxb12wJyIrttciseyi8-83">
          <mxGeometry x="-0.6667" relative="1" as="geometry">
            <Array as="points">
              <mxPoint x="540" y="560" />
            </Array>
            <mxPoint as="offset" />
          </mxGeometry>
        </mxCell>
        <mxCell id="Vsxb12wJyIrttciseyi8-51" value="" style="rhombus;whiteSpace=wrap;html=1;" vertex="1" parent="1">
          <mxGeometry x="520" y="400" width="40" height="40" as="geometry" />
        </mxCell>
        <mxCell id="Vsxb12wJyIrttciseyi8-52" value="Is trip possible?" style="text;html=1;strokeColor=none;fillColor=none;align=center;verticalAlign=middle;whiteSpace=wrap;rounded=0;fontStyle=2" vertex="1" parent="1">
          <mxGeometry x="500" y="360" width="80" height="40" as="geometry" />
        </mxCell>
        <mxCell id="Vsxb12wJyIrttciseyi8-56" value="" style="edgeStyle=orthogonalEdgeStyle;rounded=0;orthogonalLoop=1;jettySize=auto;html=1;" edge="1" parent="1" source="Vsxb12wJyIrttciseyi8-53" target="Vsxb12wJyIrttciseyi8-55">
          <mxGeometry relative="1" as="geometry" />
        </mxCell>
        <mxCell id="Vsxb12wJyIrttciseyi8-53" value="Get trip details" style="rounded=1;whiteSpace=wrap;html=1;" vertex="1" parent="1">
          <mxGeometry x="620" y="450" width="120" height="60" as="geometry" />
        </mxCell>
        <mxCell id="Vsxb12wJyIrttciseyi8-58" value="No" style="edgeStyle=orthogonalEdgeStyle;rounded=0;orthogonalLoop=1;jettySize=auto;html=1;entryX=0.5;entryY=0;entryDx=0;entryDy=0;" edge="1" parent="1" source="Vsxb12wJyIrttciseyi8-55" target="Vsxb12wJyIrttciseyi8-45">
          <mxGeometry x="-0.9348" relative="1" as="geometry">
            <Array as="points">
              <mxPoint x="800" y="560" />
              <mxPoint x="800" y="320" />
              <mxPoint x="140" y="320" />
            </Array>
            <mxPoint as="offset" />
          </mxGeometry>
        </mxCell>
        <mxCell id="Vsxb12wJyIrttciseyi8-62" value="Yes" style="edgeStyle=orthogonalEdgeStyle;rounded=0;orthogonalLoop=1;jettySize=auto;html=1;" edge="1" parent="1" source="Vsxb12wJyIrttciseyi8-55" target="Vsxb12wJyIrttciseyi8-61">
          <mxGeometry relative="1" as="geometry" />
        </mxCell>
        <mxCell id="Vsxb12wJyIrttciseyi8-55" value="" style="rhombus;whiteSpace=wrap;html=1;" vertex="1" parent="1">
          <mxGeometry x="660" y="540" width="40" height="40" as="geometry" />
        </mxCell>
        <mxCell id="Vsxb12wJyIrttciseyi8-57" value="Agree with trip proposed?" style="text;html=1;strokeColor=none;fillColor=none;align=center;verticalAlign=middle;whiteSpace=wrap;rounded=0;fontStyle=2" vertex="1" parent="1">
          <mxGeometry x="580" y="540" width="80" height="40" as="geometry" />
        </mxCell>
        <mxCell id="Vsxb12wJyIrttciseyi8-66" style="edgeStyle=orthogonalEdgeStyle;rounded=0;orthogonalLoop=1;jettySize=auto;html=1;entryX=0.5;entryY=0;entryDx=0;entryDy=0;" edge="1" parent="1" source="Vsxb12wJyIrttciseyi8-61" target="Vsxb12wJyIrttciseyi8-63">
          <mxGeometry relative="1" as="geometry" />
        </mxCell>
        <mxCell id="Vsxb12wJyIrttciseyi8-61" value="Take car" style="rounded=1;whiteSpace=wrap;html=1;" vertex="1" parent="1">
          <mxGeometry x="620" y="610" width="120" height="60" as="geometry" />
        </mxCell>
        <mxCell id="Vsxb12wJyIrttciseyi8-68" value="Yes" style="edgeStyle=orthogonalEdgeStyle;rounded=0;orthogonalLoop=1;jettySize=auto;html=1;entryX=0.5;entryY=0;entryDx=0;entryDy=0;" edge="1" parent="1" source="Vsxb12wJyIrttciseyi8-63" target="Vsxb12wJyIrttciseyi8-67">
          <mxGeometry x="-0.3846" relative="1" as="geometry">
            <mxPoint as="offset" />
          </mxGeometry>
        </mxCell>
        <mxCell id="Vsxb12wJyIrttciseyi8-70" value="No" style="edgeStyle=orthogonalEdgeStyle;rounded=0;orthogonalLoop=1;jettySize=auto;html=1;" edge="1" parent="1" source="Vsxb12wJyIrttciseyi8-63" target="Vsxb12wJyIrttciseyi8-69">
          <mxGeometry relative="1" as="geometry" />
        </mxCell>
        <mxCell id="Vsxb12wJyIrttciseyi8-63" value="" style="rhombus;whiteSpace=wrap;html=1;" vertex="1" parent="1">
          <mxGeometry x="660" y="700" width="40" height="40" as="geometry" />
        </mxCell>
        <mxCell id="Vsxb12wJyIrttciseyi8-64" value="Share trip details?" style="text;html=1;strokeColor=none;fillColor=none;align=center;verticalAlign=middle;whiteSpace=wrap;rounded=0;fontStyle=2" vertex="1" parent="1">
          <mxGeometry x="580" y="700" width="80" height="40" as="geometry" />
        </mxCell>
        <mxCell id="Vsxb12wJyIrttciseyi8-71" value="" style="edgeStyle=orthogonalEdgeStyle;rounded=0;orthogonalLoop=1;jettySize=auto;html=1;" edge="1" parent="1" source="Vsxb12wJyIrttciseyi8-67" target="Vsxb12wJyIrttciseyi8-69">
          <mxGeometry relative="1" as="geometry" />
        </mxCell>
        <mxCell id="Vsxb12wJyIrttciseyi8-67" value="Send message to contact list" style="rounded=1;whiteSpace=wrap;html=1;" vertex="1" parent="1">
          <mxGeometry x="740" y="770" width="120" height="60" as="geometry" />
        </mxCell>
        <mxCell id="Vsxb12wJyIrttciseyi8-74" style="edgeStyle=orthogonalEdgeStyle;rounded=0;orthogonalLoop=1;jettySize=auto;html=1;entryX=1;entryY=0.5;entryDx=0;entryDy=0;" edge="1" parent="1" source="Vsxb12wJyIrttciseyi8-69" target="Vsxb12wJyIrttciseyi8-72">
          <mxGeometry relative="1" as="geometry" />
        </mxCell>
        <mxCell id="Vsxb12wJyIrttciseyi8-69" value="" style="rhombus;whiteSpace=wrap;html=1;" vertex="1" parent="1">
          <mxGeometry x="660" y="780" width="40" height="40" as="geometry" />
        </mxCell>
        <mxCell id="Vsxb12wJyIrttciseyi8-76" value="Yes" style="edgeStyle=orthogonalEdgeStyle;rounded=0;orthogonalLoop=1;jettySize=auto;html=1;exitX=0.5;exitY=1;exitDx=0;exitDy=0;entryX=1;entryY=0.5;entryDx=0;entryDy=0;" edge="1" parent="1" source="Vsxb12wJyIrttciseyi8-72" target="Vsxb12wJyIrttciseyi8-75">
          <mxGeometry x="-0.4" relative="1" as="geometry">
            <mxPoint as="offset" />
          </mxGeometry>
        </mxCell>
        <mxCell id="Vsxb12wJyIrttciseyi8-79" value="No" style="edgeStyle=orthogonalEdgeStyle;rounded=0;orthogonalLoop=1;jettySize=auto;html=1;entryX=1;entryY=0.5;entryDx=0;entryDy=0;" edge="1" parent="1" source="Vsxb12wJyIrttciseyi8-72" target="Vsxb12wJyIrttciseyi8-77">
          <mxGeometry x="-0.5" relative="1" as="geometry">
            <mxPoint as="offset" />
          </mxGeometry>
        </mxCell>
        <mxCell id="Vsxb12wJyIrttciseyi8-72" value="" style="rhombus;whiteSpace=wrap;html=1;" vertex="1" parent="1">
          <mxGeometry x="540" y="780" width="40" height="40" as="geometry" />
        </mxCell>
        <mxCell id="Vsxb12wJyIrttciseyi8-73" value="Share payment?" style="text;html=1;strokeColor=none;fillColor=none;align=center;verticalAlign=middle;whiteSpace=wrap;rounded=0;fontStyle=2" vertex="1" parent="1">
          <mxGeometry x="500" y="750" width="120" height="30" as="geometry" />
        </mxCell>
        <mxCell id="Vsxb12wJyIrttciseyi8-78" style="edgeStyle=orthogonalEdgeStyle;rounded=0;orthogonalLoop=1;jettySize=auto;html=1;entryX=0.5;entryY=1;entryDx=0;entryDy=0;" edge="1" parent="1" source="Vsxb12wJyIrttciseyi8-75" target="Vsxb12wJyIrttciseyi8-77">
          <mxGeometry relative="1" as="geometry" />
        </mxCell>
        <mxCell id="Vsxb12wJyIrttciseyi8-75" value="Choose mate to share price with" style="rounded=1;whiteSpace=wrap;html=1;" vertex="1" parent="1">
          <mxGeometry x="400" y="850" width="120" height="60" as="geometry" />
        </mxCell>
        <mxCell id="Vsxb12wJyIrttciseyi8-81" value="" style="edgeStyle=orthogonalEdgeStyle;rounded=0;orthogonalLoop=1;jettySize=auto;html=1;" edge="1" parent="1" source="Vsxb12wJyIrttciseyi8-77" target="Vsxb12wJyIrttciseyi8-80">
          <mxGeometry relative="1" as="geometry" />
        </mxCell>
        <mxCell id="Vsxb12wJyIrttciseyi8-77" value="" style="rhombus;whiteSpace=wrap;html=1;" vertex="1" parent="1">
          <mxGeometry x="340" y="780" width="40" height="40" as="geometry" />
        </mxCell>
        <mxCell id="Vsxb12wJyIrttciseyi8-89" value="" style="edgeStyle=orthogonalEdgeStyle;rounded=0;orthogonalLoop=1;jettySize=auto;html=1;" edge="1" parent="1" source="Vsxb12wJyIrttciseyi8-80" target="Vsxb12wJyIrttciseyi8-87">
          <mxGeometry relative="1" as="geometry" />
        </mxCell>
        <mxCell id="Vsxb12wJyIrttciseyi8-80" value="Aprrove payment" style="rounded=1;whiteSpace=wrap;html=1;" vertex="1" parent="1">
          <mxGeometry x="160" y="770" width="120" height="60" as="geometry" />
        </mxCell>
        <mxCell id="Vsxb12wJyIrttciseyi8-85" style="edgeStyle=orthogonalEdgeStyle;rounded=0;orthogonalLoop=1;jettySize=auto;html=1;entryX=0.5;entryY=1;entryDx=0;entryDy=0;" edge="1" parent="1" source="Vsxb12wJyIrttciseyi8-83" target="Vsxb12wJyIrttciseyi8-45">
          <mxGeometry relative="1" as="geometry" />
        </mxCell>
        <mxCell id="Vsxb12wJyIrttciseyi8-83" value="Error: price couldn&#39;t be calculated" style="rounded=1;whiteSpace=wrap;html=1;" vertex="1" parent="1">
          <mxGeometry x="360" y="530" width="120" height="60" as="geometry" />
        </mxCell>
        <mxCell id="Vsxb12wJyIrttciseyi8-87" value="" style="ellipse;html=1;shape=endState;fillColor=#000000;strokeColor=#000000;" vertex="1" parent="1">
          <mxGeometry x="40" y="780" width="40" height="40" as="geometry" />
        </mxCell>
      </root>
    </mxGraphModel>
  </diagram>
</mxfile>
